<svg width="53" height="35" viewBox="0 0 53 35" fill="none" xmlns="http://www.w3.org/2000/svg">
<g filter="url(#filter0_bdi_548_112)">
<rect x="2" y="8" width="49" height="24" rx="5" fill="#808080" fill-opacity="0.3" style="mix-blend-mode:luminosity" shape-rendering="crispEdges"/>
<path d="M9.81641 24H8.26953L11.0859 16H12.875L15.6953 24H14.1484L12.0117 17.6406H11.9492L9.81641 24ZM9.86719 20.8633H14.0859V22.0273H9.86719V20.8633ZM16.639 24V16H18.0882V22.7852H21.6117V24H16.639ZM22.7595 24V16H25.7595C26.3741 16 26.8897 16.1146 27.3064 16.3437C27.7256 16.5729 28.042 16.888 28.2556 17.2891C28.4717 17.6875 28.5798 18.1406 28.5798 18.6484C28.5798 19.1615 28.4717 19.6172 28.2556 20.0156C28.0394 20.4141 27.7204 20.7279 27.2986 20.957C26.8767 21.1836 26.3571 21.2969 25.74 21.2969H23.7517V20.1055H25.5446C25.904 20.1055 26.1983 20.043 26.4275 19.918C26.6566 19.793 26.8259 19.6211 26.9353 19.4023C27.0473 19.1836 27.1032 18.9323 27.1032 18.6484C27.1032 18.3646 27.0473 18.1146 26.9353 17.8984C26.8259 17.6823 26.6553 17.5143 26.4236 17.3945C26.1944 17.2721 25.8988 17.2109 25.5368 17.2109H24.2087V24H22.7595ZM29.7286 24V16H31.1778V19.3867H34.8848V16H36.338V24H34.8848V20.6016H31.1778V24H29.7286ZM38.8315 24H37.2846L40.101 16H41.8901L44.7104 24H43.1635L41.0268 17.6406H40.9643L38.8315 24ZM38.8823 20.8633H43.101V22.0273H38.8823V20.8633Z" fill="white"/>
</g>
<defs>
<filter id="filter0_bdi_548_112" x="-38" y="-32" width="129" height="104" filterUnits="userSpaceOnUse" color-interpolation-filters="sRGB">
<feFlood flood-opacity="0" result="BackgroundImageFix"/>
<feGaussianBlur in="BackgroundImageFix" stdDeviation="20"/>
<feComposite in2="SourceAlpha" operator="in" result="effect1_backgroundBlur_548_112"/>
<feColorMatrix in="SourceAlpha" type="matrix" values="0 0 0 0 0 0 0 0 0 0 0 0 0 0 0 0 0 0 127 0" result="hardAlpha"/>
<feOffset dy="1"/>
<feGaussianBlur stdDeviation="1"/>
<feComposite in2="hardAlpha" operator="out"/>
<feColorMatrix type="matrix" values="0 0 0 0 0 0 0 0 0 0 0 0 0 0 0 0 0 0 0.12 0"/>
<feBlend mode="normal" in2="effect1_backgroundBlur_548_112" result="effect2_dropShadow_548_112"/>
<feBlend mode="normal" in="SourceGraphic" in2="effect2_dropShadow_548_112" result="shape"/>
<feColorMatrix in="SourceAlpha" type="matrix" values="0 0 0 0 0 0 0 0 0 0 0 0 0 0 0 0 0 0 127 0" result="hardAlpha"/>
<feOffset dy="1"/>
<feComposite in2="hardAlpha" operator="arithmetic" k2="-1" k3="1"/>
<feColorMatrix type="matrix" values="0 0 0 0 1 0 0 0 0 1 0 0 0 0 1 0 0 0 0.12 0"/>
<feBlend mode="normal" in2="shape" result="effect3_innerShadow_548_112"/>
</filter>
</defs>
</svg>
