<svg width="49" height="48" viewBox="0 0 49 48" fill="none" xmlns="http://www.w3.org/2000/svg">
<path d="M38.9583 31.875C41.026 31.875 42.7083 33.5573 42.7083 35.625V39.375C42.7083 41.4427 41.026 43.125 38.9583 43.125H35.2083C33.1405 43.125 31.4583 41.4427 31.4583 39.375V39H24.3333C23.5053 39 22.8333 38.328 22.8333 37.5C22.8333 36.672 23.5053 36 24.3333 36H31.4583V35.625C31.4583 33.5573 33.1405 31.875 35.2083 31.875H35.5833V28.4287C35.5833 27.6397 36.2553 27 37.0833 27C37.9113 27 38.5833 27.6397 38.5833 28.4287V31.875H38.9583ZM39.7083 39.375V35.625C39.7083 35.2118 39.3723 34.875 38.9583 34.875H35.2083C34.7943 34.875 34.4583 35.2118 34.4583 35.625V39.375C34.4583 39.7882 34.7943 40.125 35.2083 40.125H38.9583C39.3723 40.125 39.7083 39.7882 39.7083 39.375ZM19.8333 36.006C20.6613 36.006 21.3333 36.678 21.3333 37.506C21.3333 38.334 20.6613 39.006 19.8333 39.006H16.4583V39.375C16.4583 41.4427 14.776 43.125 12.7083 43.125H8.95825C6.8905 43.125 5.20825 41.4427 5.20825 39.375V35.625C5.20825 33.5573 6.8905 31.875 8.95825 31.875H9.33325V24.756C9.33325 23.928 10.0053 23.256 10.8333 23.256C11.6613 23.256 12.3333 23.928 12.3333 24.756V31.875H12.7083C14.776 31.875 16.4583 33.5573 16.4583 35.625V36.006H19.8333ZM13.4583 39.375V35.625C13.4583 35.2118 13.1223 34.875 12.7083 34.875H8.95825C8.54425 34.875 8.20825 35.2118 8.20825 35.625V39.375C8.20825 39.7882 8.54425 40.125 8.95825 40.125H12.7083C13.1223 40.125 13.4583 39.7882 13.4583 39.375ZM38.9583 5.625C41.026 5.625 42.7083 7.30725 42.7083 9.375V13.125C42.7083 15.1927 41.026 16.875 38.9583 16.875H38.5833V24.024C38.5833 24.8393 37.9113 25.5 37.0833 25.5C36.2553 25.5 35.5833 24.8393 35.5833 24.024V16.875H35.2083C33.1405 16.875 31.4583 15.1927 31.4583 13.125V12.75H28.0833C27.2553 12.75 26.5833 12.078 26.5833 11.25C26.5833 10.422 27.2553 9.75 28.0833 9.75H31.4583V9.375C31.4583 7.30725 33.1405 5.625 35.2083 5.625H38.9583ZM39.7083 13.125V9.375C39.7083 8.96175 39.3723 8.625 38.9583 8.625H35.2083C34.7943 8.625 34.4583 8.96175 34.4583 9.375V13.125C34.4583 13.5382 34.7943 13.875 35.2083 13.875H38.9583C39.3723 13.875 39.7083 13.5382 39.7083 13.125ZM23.5833 9.75C24.4113 9.75 25.0833 10.422 25.0833 11.25C25.0833 12.078 24.4113 12.75 23.5833 12.75H16.4583V13.125C16.4583 15.1927 14.776 16.875 12.7083 16.875H12.3333V20.25C12.3333 21.078 11.6613 21.75 10.8333 21.75C10.0053 21.75 9.33325 21.078 9.33325 20.25V16.875H8.95825C6.8905 16.875 5.20825 15.1927 5.20825 13.125V9.375C5.20825 7.30725 6.8905 5.625 8.95825 5.625H12.7083C14.776 5.625 16.4583 7.30725 16.4583 9.375V9.75H23.5833ZM13.4583 13.125V9.375C13.4583 8.96175 13.1223 8.625 12.7083 8.625H8.95825C8.54425 8.625 8.20825 8.96175 8.20825 9.375V13.125C8.20825 13.5382 8.54425 13.875 8.95825 13.875H12.7083C13.1223 13.875 13.4583 13.5382 13.4583 13.125Z" fill="white"/>
</svg>
