<svg width="10" height="11" viewBox="0 0 10 11" fill="none" xmlns="http://www.w3.org/2000/svg">
<path d="M5.23047 9.5C5.41406 9.49613 5.58203 9.45934 5.73437 9.38963C5.89062 9.31992 6.04492 9.20954 6.19727 9.05851L9.74871 5.71112C9.84134 5.62382 9.88765 5.58017 9.92082 5.52847C9.95023 5.48264 9.97195 5.43232 9.98513 5.37948C10 5.31988 10 5.25624 10 5.12896V4.31092C10 3.73785 10 3.45132 9.8847 3.31244C9.78456 3.19182 9.63365 3.12515 9.47704 3.13235C9.29673 3.14064 9.08491 3.3336 8.66126 3.71951L5.23633 6.83942L1.31047 3.586C0.892229 3.2394 0.683109 3.0661 0.506582 3.06378C0.353114 3.06176 0.207219 3.13033 0.110849 3.24979C0 3.38719 0 3.65879 0 4.20198V5.10167C0 5.23866 0 5.30715 0.0170021 5.37067C0.0320663 5.42696 0.0568533 5.48018 0.0902424 5.52792C0.127925 5.58181 0.180355 5.62589 0.285215 5.71404L4.26367 9.05851C4.41602 9.21342 4.56836 9.32573 4.7207 9.39544C4.87695 9.46515 5.04687 9.5 5.23047 9.5Z" fill="white"/>
</svg>
