<svg width="49" height="48" viewBox="0 0 49 48" fill="none" xmlns="http://www.w3.org/2000/svg">
<path d="M24.6665 10.5C13.79 10.5 4.4165 19.5548 4.4165 24C4.4165 28.4452 13.79 37.5 24.6665 37.5C35.543 37.5 44.9165 28.4452 44.9165 24C44.9165 19.5548 35.543 10.5 24.6665 10.5ZM24.6665 13.5C34.3738 13.5 41.9165 21.8752 41.9165 24C41.9165 26.1248 34.3738 34.5 24.6665 34.5C14.9593 34.5 7.4165 26.1248 7.4165 24C7.4165 21.8752 14.9593 13.5 24.6665 13.5ZM24.6665 15.75C20.1103 15.75 16.4165 19.4438 16.4165 24C16.4165 28.5562 20.1103 32.25 24.6665 32.25C29.2228 32.25 32.9165 28.5562 32.9165 24C32.9165 19.4438 29.2228 15.75 24.6665 15.75ZM24.6665 21C26.3233 21 27.6665 22.3433 27.6665 24C27.6665 25.6567 26.3233 27 24.6665 27C23.0098 27 21.6665 25.6567 21.6665 24C21.6665 22.3433 23.0098 21 24.6665 21Z" fill="white"/>
</svg>
