<svg width="11" height="7" viewBox="0 0 11 7" fill="none" xmlns="http://www.w3.org/2000/svg">
<path d="M1.0835 1.64453C0.941895 1.64453 0.810059 1.60791 0.687988 1.53467C0.565918 1.45654 0.46582 1.35645 0.387695 1.23438C0.30957 1.1123 0.270508 0.975586 0.270508 0.824219C0.270508 0.677734 0.30957 0.541016 0.387695 0.414062C0.46582 0.287109 0.565918 0.187012 0.687988 0.11377C0.810059 0.0405273 0.941895 0.00390625 1.0835 0.00390625H9.9165C10.063 0.00390625 10.1973 0.0405273 10.3193 0.11377C10.4414 0.187012 10.5391 0.287109 10.6123 0.414062C10.6904 0.541016 10.7295 0.677734 10.7295 0.824219C10.7295 0.975586 10.6904 1.1123 10.6123 1.23438C10.5391 1.35645 10.4414 1.45654 10.3193 1.53467C10.1973 1.60791 10.063 1.64453 9.9165 1.64453H1.0835ZM1.0835 6.44189C0.941895 6.44189 0.810059 6.40527 0.687988 6.33203C0.565918 6.25879 0.46582 6.15869 0.387695 6.03174C0.30957 5.90479 0.270508 5.76807 0.270508 5.62158C0.270508 5.47021 0.30957 5.3335 0.387695 5.21143C0.46582 5.08936 0.565918 4.98926 0.687988 4.91113C0.810059 4.83301 0.941895 4.79395 1.0835 4.79395H9.9165C10.063 4.79395 10.1973 4.83301 10.3193 4.91113C10.4414 4.98926 10.5391 5.08936 10.6123 5.21143C10.6904 5.3335 10.7295 5.47021 10.7295 5.62158C10.7295 5.76807 10.6904 5.90479 10.6123 6.03174C10.5391 6.15869 10.4414 6.25879 10.3193 6.33203C10.1973 6.40527 10.063 6.44189 9.9165 6.44189H1.0835Z" fill="white"/>
</svg>
