<svg width="49" height="48" viewBox="0 0 49 48" fill="none" xmlns="http://www.w3.org/2000/svg">
<path d="M24.3333 4.5C18.0768 4.5 13.0833 9.537 13.0833 15.75C13.0833 20.0662 15.5163 23.8093 19.0833 25.6963V38.7598C19.0833 39.5803 19.4593 40.357 20.1028 40.8662L22.8186 43.0137C23.2296 43.3392 23.7233 43.5 24.2161 43.5C24.7681 43.5 25.3185 43.2984 25.7498 42.8994L30.6467 38.3584C31.009 38.0224 31.1144 37.493 30.9104 37.043L29.5833 34.1177V34.0459L31.3865 31.8091C31.9287 31.1363 31.9564 30.1849 31.4539 29.4814L29.5833 26.8623V25.6963C33.1503 23.8093 35.5833 20.0662 35.5833 15.75C35.5833 9.537 30.5898 4.5 24.3333 4.5ZM24.3333 7.5C28.882 7.5 32.5833 11.2013 32.5833 15.75C32.5833 18.813 30.8971 21.608 28.1814 23.0435L26.5833 23.8887V27.8232L28.5388 30.561L26.5833 32.9868V34.7666L27.6277 37.0679L24.1794 40.2642L22.2898 38.77C22.1593 38.6665 22.0833 38.511 22.0833 38.3452V23.8887L20.4851 23.0449C17.7694 21.6087 16.0833 18.813 16.0833 15.75C16.0833 11.2013 19.7845 7.5 24.3333 7.5ZM24.3333 10.5C22.6765 10.5 21.3333 11.8432 21.3333 13.5C21.3333 15.1567 22.6765 16.5 24.3333 16.5C25.99 16.5 27.3333 15.1567 27.3333 13.5C27.3333 11.8432 25.99 10.5 24.3333 10.5Z" fill="white"/>
</svg>
