<svg width="155" height="64" viewBox="0 0 155 64" fill="none" xmlns="http://www.w3.org/2000/svg">
<g filter="url(#filter0_ddi_548_106)">
<path d="M26.3025 29.28C26.1745 29.2373 26.0678 29.1413 25.9825 28.992C25.9185 28.8427 25.8865 28.7147 25.8865 28.608C25.8865 28.224 26.0572 27.9253 26.3985 27.712C26.7398 27.4987 27.0918 27.392 27.4545 27.392C27.8385 27.392 28.1798 27.52 28.4785 27.776C28.7772 28.032 28.9265 28.4373 28.9265 28.992C28.9265 29.3333 28.8198 29.6853 28.6065 30.048C28.3932 30.3893 28.0945 30.7093 27.7105 31.008C27.3478 31.2853 26.8998 31.52 26.3665 31.712C25.8545 31.904 25.2892 32 24.6705 32H16.6065L24.7665 17.728H22.3345C21.8438 17.728 21.3958 17.76 20.9905 17.824C20.6065 17.8667 20.4145 18.0053 20.4145 18.24C20.4145 18.4107 20.4678 18.56 20.5745 18.688C20.6812 18.816 20.7345 18.9653 20.7345 19.136C20.7345 19.3707 20.5638 19.6053 20.2225 19.84C19.9025 20.0747 19.5292 20.192 19.1025 20.192C18.1852 20.192 17.7265 19.5627 17.7265 18.304C17.7265 17.984 17.7798 17.6853 17.8865 17.408C18.0145 17.1093 18.2172 16.864 18.4945 16.672C18.7932 16.4587 19.1772 16.2987 19.6465 16.192C20.1372 16.064 20.7345 16 21.4385 16H29.0545L21.0865 29.76C21.2145 29.76 21.4385 29.7707 21.7585 29.792C22.0998 29.8133 22.4625 29.8347 22.8465 29.856C23.2305 29.8773 23.6038 29.8987 23.9665 29.92C24.3505 29.9413 24.6492 29.952 24.8625 29.952C25.2465 29.952 25.5665 29.888 25.8225 29.76C26.0785 29.632 26.2385 29.472 26.3025 29.28ZM36.6085 9.6L34.1125 21.184L40.7045 16H43.8085L37.5045 20.352C37.5898 20.352 37.6645 20.352 37.7285 20.352C37.8138 20.3307 37.8992 20.32 37.9845 20.32C38.6245 20.32 39.1578 20.416 39.5845 20.608C40.0112 20.8 40.3418 21.0667 40.5765 21.408C40.8112 21.728 40.9712 22.112 41.0565 22.56C41.1632 22.9867 41.2165 23.4453 41.2165 23.936C41.2165 24.32 41.1738 24.704 41.0885 25.088C41.0245 25.4507 40.9498 25.8133 40.8645 26.176C40.7792 26.5387 40.6938 26.8907 40.6085 27.232C40.5445 27.5733 40.5125 27.8933 40.5125 28.192C40.5125 28.64 40.5765 29.0133 40.7045 29.312C40.8325 29.6107 41.0885 29.76 41.4725 29.76C42.4752 29.76 43.4778 28.5973 44.4805 26.272H45.6645C45.1525 27.616 44.6405 28.6827 44.1285 29.472C43.6165 30.2613 43.1152 30.8587 42.6245 31.264C42.1552 31.648 41.7072 31.8933 41.2805 32C40.8752 32.128 40.5125 32.192 40.1925 32.192C39.0832 32.192 38.2938 31.8507 37.8245 31.168C37.3552 30.464 37.1205 29.6 37.1205 28.576C37.1205 28.2347 37.1525 27.8827 37.2165 27.52C37.3018 27.136 37.3872 26.7627 37.4725 26.4C37.5578 26.0373 37.6325 25.696 37.6965 25.376C37.7818 25.056 37.8245 24.768 37.8245 24.512C37.8245 23.9787 37.7392 23.552 37.5685 23.232C37.3978 22.912 37.0352 22.752 36.4805 22.752C35.2645 22.752 34.1872 23.5733 33.2485 25.216L31.8085 32H28.6085L33.3125 10.048L36.6085 9.6Z" fill="#EDEDED" style="mix-blend-mode:luminosity" shape-rendering="crispEdges"/>
</g>
<g filter="url(#filter1_ddi_548_106)">
<path d="M79.6291 14.816L79.0851 17.28C79.5758 16.8533 80.1198 16.512 80.7171 16.256C81.3358 15.9787 81.9971 15.84 82.7011 15.84C83.2558 15.84 83.7678 15.936 84.2371 16.128C84.7065 16.32 85.1118 16.6293 85.4531 17.056C85.7945 17.4827 86.0611 18.0373 86.2531 18.72C86.4451 19.3813 86.5411 20.2027 86.5411 21.184C86.5411 21.8667 86.4878 22.6133 86.3811 23.424C86.2745 24.2347 86.1038 25.056 85.8691 25.888C85.6345 26.6987 85.3145 27.488 84.9091 28.256C84.5251 29.0027 84.0451 29.6747 83.4691 30.272C82.8931 30.848 82.2211 31.3173 81.4531 31.68C80.6851 32.0213 79.8105 32.192 78.8291 32.192C78.2531 32.192 77.7518 32.0533 77.3251 31.776C76.9198 31.4773 76.5678 31.0933 76.2691 30.624L74.4451 39.2L71.0531 40L76.3971 14.816H79.6291ZM81.1651 17.92C80.6745 17.92 80.2158 18.0587 79.7891 18.336C79.3838 18.6133 78.9998 18.9973 78.6371 19.488L76.5891 29.024C76.8238 29.4293 77.1011 29.7173 77.4211 29.888C77.7625 30.0587 78.0611 30.144 78.3171 30.144C79.2771 30.144 80.0771 29.824 80.7171 29.184C81.3571 28.5227 81.8691 27.7333 82.2531 26.816C82.6585 25.8773 82.9465 24.9067 83.1171 23.904C83.2878 22.88 83.3731 21.9947 83.3731 21.248C83.3731 20.608 83.3091 20.0747 83.1811 19.648C83.0531 19.2213 82.8825 18.88 82.6691 18.624C82.4558 18.368 82.2211 18.1867 81.9651 18.08C81.7091 17.9733 81.4425 17.92 81.1651 17.92ZM95.6244 15.84C96.9044 15.84 97.8217 16.2773 98.3764 17.152C98.931 18.0053 99.219 19.2533 99.2404 20.896C101.139 20.896 102.888 20.256 104.488 18.976L104.776 19.84C104.179 20.5227 103.379 21.0987 102.376 21.568C101.395 22.016 100.328 22.3147 99.1764 22.464C99.0697 23.8507 98.835 25.1413 98.4724 26.336C98.1097 27.5093 97.6297 28.5333 97.0324 29.408C96.435 30.2827 95.731 30.9653 94.9204 31.456C94.1097 31.9467 93.2137 32.192 92.2324 32.192C91.5284 32.192 90.867 32.1067 90.2484 31.936C89.651 31.744 89.1284 31.4453 88.6804 31.04C88.2324 30.6347 87.8804 30.112 87.6244 29.472C87.3684 28.832 87.2404 28.0533 87.2404 27.136C87.2404 26.5173 87.2937 25.8133 87.4004 25.024C87.507 24.2347 87.6884 23.424 87.9444 22.592C88.2004 21.7387 88.531 20.9173 88.9364 20.128C89.363 19.3173 89.8857 18.592 90.5044 17.952C91.1444 17.312 91.8804 16.8 92.7124 16.416C93.5444 16.032 94.515 15.84 95.6244 15.84ZM93.4484 29.76C93.9177 29.76 94.3764 29.6 94.8244 29.28C95.2937 28.9387 95.7097 28.4587 96.0724 27.84C96.4564 27.2213 96.7764 26.4747 97.0324 25.6C97.3097 24.704 97.5017 23.6907 97.6084 22.56C97.075 22.56 96.723 22.4427 96.5524 22.208C96.403 21.952 96.3284 21.632 96.3284 21.248C96.3284 20.6933 96.4564 20.2987 96.7124 20.064C96.9684 19.808 97.299 19.6587 97.7044 19.616C97.619 18.8693 97.4057 18.3467 97.0644 18.048C96.7444 17.7493 96.3177 17.6 95.7844 17.6C95.251 17.6 94.7497 17.7493 94.2804 18.048C93.8324 18.3467 93.4164 18.7413 93.0324 19.232C92.6697 19.7013 92.339 20.256 92.0404 20.896C91.763 21.5147 91.5284 22.1547 91.3364 22.816C91.1444 23.4773 90.995 24.1387 90.8884 24.8C90.803 25.44 90.7604 26.0267 90.7604 26.56C90.7604 27.6693 90.9524 28.48 91.3364 28.992C91.7417 29.504 92.4457 29.76 93.4484 29.76ZM107.687 9.6L105.191 21.184L111.783 16H114.887L108.583 20.352C108.668 20.352 108.743 20.352 108.807 20.352C108.892 20.3307 108.977 20.32 109.063 20.32C109.703 20.32 110.236 20.416 110.663 20.608C111.089 20.8 111.42 21.0667 111.655 21.408C111.889 21.728 112.049 22.112 112.135 22.56C112.241 22.9867 112.295 23.4453 112.295 23.936C112.295 24.32 112.252 24.704 112.167 25.088C112.103 25.4507 112.028 25.8133 111.943 26.176C111.857 26.5387 111.772 26.8907 111.687 27.232C111.623 27.5733 111.591 27.8933 111.591 28.192C111.591 28.64 111.655 29.0133 111.783 29.312C111.911 29.6107 112.167 29.76 112.551 29.76C113.553 29.76 114.556 28.5973 115.559 26.272H116.743C116.231 27.616 115.719 28.6827 115.207 29.472C114.695 30.2613 114.193 30.8587 113.703 31.264C113.233 31.648 112.785 31.8933 112.359 32C111.953 32.128 111.591 32.192 111.271 32.192C110.161 32.192 109.372 31.8507 108.903 31.168C108.433 30.464 108.199 29.6 108.199 28.576C108.199 28.2347 108.231 27.8827 108.295 27.52C108.38 27.136 108.465 26.7627 108.551 26.4C108.636 26.0373 108.711 25.696 108.775 25.376C108.86 25.056 108.903 24.768 108.903 24.512C108.903 23.9787 108.817 23.552 108.647 23.232C108.476 22.912 108.113 22.752 107.559 22.752C106.343 22.752 105.265 23.5733 104.327 25.216L102.887 32H99.6866L104.391 10.048L107.687 9.6ZM126.792 19.136C126.792 20.9493 126.077 22.4213 124.648 23.552C123.24 24.6613 121.288 25.344 118.792 25.6C118.77 25.7707 118.76 25.9413 118.76 26.112C118.76 26.2613 118.76 26.4213 118.76 26.592C118.76 27.68 118.962 28.48 119.368 28.992C119.794 29.504 120.52 29.76 121.544 29.76C122.568 29.76 123.581 29.4933 124.584 28.96C125.586 28.4267 126.504 27.5307 127.336 26.272H128.36C127.933 27.0613 127.421 27.8187 126.824 28.544C126.226 29.248 125.565 29.8773 124.84 30.432C124.114 30.9653 123.336 31.392 122.504 31.712C121.693 32.032 120.861 32.192 120.008 32.192C119.389 32.192 118.792 32.096 118.216 31.904C117.661 31.712 117.16 31.4133 116.712 31.008C116.285 30.6027 115.933 30.08 115.656 29.44C115.4 28.7787 115.272 27.9893 115.272 27.072C115.272 26.4747 115.336 25.7813 115.464 24.992C115.592 24.2027 115.784 23.392 116.04 22.56C116.317 21.728 116.669 20.9067 117.096 20.096C117.544 19.2853 118.066 18.5707 118.664 17.952C119.261 17.312 119.944 16.8 120.712 16.416C121.501 16.032 122.386 15.84 123.368 15.84C123.816 15.84 124.242 15.8933 124.648 16C125.053 16.0853 125.416 16.256 125.736 16.512C126.056 16.7467 126.312 17.0773 126.504 17.504C126.696 17.9307 126.792 18.4747 126.792 19.136ZM123.656 17.408C123.058 17.408 122.504 17.6213 121.992 18.048C121.48 18.4533 121.021 18.9867 120.616 19.648C120.232 20.3093 119.89 21.056 119.592 21.888C119.314 22.6987 119.101 23.52 118.952 24.352C120.744 24.0747 122.173 23.4453 123.24 22.464C124.306 21.4827 124.84 20.2667 124.84 18.816C124.84 18.4533 124.765 18.1333 124.616 17.856C124.488 17.5573 124.168 17.408 123.656 17.408ZM132.717 16L132.141 18.624C132.44 18.2827 132.749 17.952 133.069 17.632C133.389 17.2907 133.72 16.992 134.061 16.736C134.424 16.4587 134.797 16.2453 135.181 16.096C135.565 15.9253 135.981 15.84 136.429 15.84C137.069 15.84 137.528 15.9893 137.805 16.288C138.082 16.5653 138.221 16.9173 138.221 17.344C138.221 17.7493 138.146 18.0907 137.997 18.368C137.869 18.624 137.709 18.8373 137.517 19.008C137.325 19.1573 137.122 19.264 136.909 19.328C136.696 19.392 136.514 19.424 136.365 19.424C136.173 19.424 136.024 19.3813 135.917 19.296C135.832 19.2107 135.736 19.1253 135.629 19.04C135.544 18.9333 135.437 18.8373 135.309 18.752C135.181 18.6667 135 18.624 134.765 18.624C134.296 18.624 133.794 18.7947 133.261 19.136C132.749 19.456 132.269 19.808 131.821 20.192L129.293 32H126.093L129.485 16H132.717Z" fill="#EDEDED" style="mix-blend-mode:luminosity" shape-rendering="crispEdges"/>
</g>
<g filter="url(#filter2_ddi_548_106)">
<path d="M49.9453 23.8438C49.9453 23.0156 50.1328 22.2656 50.5078 21.5938C50.8906 20.9219 51.3828 20.2852 51.9844 19.6836C52.5938 19.0742 53.2461 18.4648 53.9414 17.8555C54.6367 17.2383 55.3047 16.5781 55.9453 15.875C56.5938 15.1641 57.1406 14.3672 57.5859 13.4844C57.6875 13.2812 57.8203 13.1094 57.9844 12.9688C58.1562 12.8281 58.3789 12.7578 58.6523 12.7578C58.918 12.7578 59.1328 12.8281 59.2969 12.9688C59.4688 13.1094 59.6094 13.2812 59.7188 13.4844C60.1562 14.3672 60.6953 15.1641 61.3359 15.875C61.9844 16.5781 62.6562 17.2383 63.3516 17.8555C64.0469 18.4648 64.6953 19.0742 65.2969 19.6836C65.9062 20.2852 66.3984 20.9219 66.7734 21.5938C67.1562 22.2656 67.3477 23.0156 67.3477 23.8438C67.3477 24.5703 67.1719 25.2305 66.8203 25.8242C66.4688 26.418 65.9961 26.8945 65.4023 27.2539C64.8086 27.6055 64.1484 27.7812 63.4219 27.7812C62.8281 27.7812 62.2461 27.6758 61.6758 27.4648C61.1055 27.2461 60.6875 26.8633 60.4219 26.3164H60.3281C60.3125 26.6133 60.375 26.8984 60.5156 27.1719C60.6562 27.4453 60.832 27.6992 61.043 27.9336C61.2539 28.1602 61.4609 28.3672 61.6641 28.5547C61.8672 28.7422 62.0273 28.8984 62.1445 29.0234C62.3164 29.2031 62.4219 29.3945 62.4609 29.5977C62.5 29.793 62.4844 29.9805 62.4141 30.1602C62.3516 30.332 62.2422 30.4727 62.0859 30.582C61.9375 30.6914 61.7539 30.7461 61.5352 30.7461H55.7578C55.5391 30.7461 55.3516 30.6914 55.1953 30.582C55.0469 30.4727 54.9375 30.332 54.8672 30.1602C54.8047 29.9805 54.793 29.793 54.832 29.5977C54.8711 29.3945 54.9766 29.2031 55.1484 29.0234C55.2656 28.8984 55.4258 28.7422 55.6289 28.5547C55.8398 28.3672 56.0469 28.1602 56.25 27.9336C56.4609 27.6992 56.6367 27.4453 56.7773 27.1719C56.918 26.8984 56.9805 26.6133 56.9648 26.3164H56.8711C56.6055 26.8633 56.1875 27.2461 55.6172 27.4648C55.0469 27.6758 54.4688 27.7812 53.8828 27.7812C53.1484 27.7812 52.4844 27.6055 51.8906 27.2539C51.2969 26.8945 50.8242 26.418 50.4727 25.8242C50.1211 25.2305 49.9453 24.5703 49.9453 23.8438Z" fill="#EDEDED" fill-opacity="0.7" style="mix-blend-mode:luminosity" shape-rendering="crispEdges"/>
</g>
<defs>
<filter id="filter0_ddi_548_106" x="0.606445" y="1.60001" width="61.0581" height="54.592" filterUnits="userSpaceOnUse" color-interpolation-filters="sRGB">
<feFlood flood-opacity="0" result="BackgroundImageFix"/>
<feColorMatrix in="SourceAlpha" type="matrix" values="0 0 0 0 0 0 0 0 0 0 0 0 0 0 0 0 0 0 127 0" result="hardAlpha"/>
<feOffset dy="1"/>
<feGaussianBlur stdDeviation="1"/>
<feColorMatrix type="matrix" values="0 0 0 0 0 0 0 0 0 0 0 0 0 0 0 0 0 0 0.4 0"/>
<feBlend mode="normal" in2="BackgroundImageFix" result="effect1_dropShadow_548_106"/>
<feColorMatrix in="SourceAlpha" type="matrix" values="0 0 0 0 0 0 0 0 0 0 0 0 0 0 0 0 0 0 127 0" result="hardAlpha"/>
<feOffset dy="8"/>
<feGaussianBlur stdDeviation="8"/>
<feComposite in2="hardAlpha" operator="out"/>
<feColorMatrix type="matrix" values="0 0 0 0 0 0 0 0 0 0 0 0 0 0 0 0 0 0 0.25 0"/>
<feBlend mode="normal" in2="effect1_dropShadow_548_106" result="effect2_dropShadow_548_106"/>
<feBlend mode="normal" in="SourceGraphic" in2="effect2_dropShadow_548_106" result="shape"/>
<feColorMatrix in="SourceAlpha" type="matrix" values="0 0 0 0 0 0 0 0 0 0 0 0 0 0 0 0 0 0 127 0" result="hardAlpha"/>
<feOffset dy="1"/>
<feComposite in2="hardAlpha" operator="arithmetic" k2="-1" k3="1"/>
<feColorMatrix type="matrix" values="0 0 0 0 1 0 0 0 0 1 0 0 0 0 1 0 0 0 1 0"/>
<feBlend mode="normal" in2="shape" result="effect3_innerShadow_548_106"/>
</filter>
<filter id="filter1_ddi_548_106" x="55.0532" y="1.60001" width="99.1677" height="62.4" filterUnits="userSpaceOnUse" color-interpolation-filters="sRGB">
<feFlood flood-opacity="0" result="BackgroundImageFix"/>
<feColorMatrix in="SourceAlpha" type="matrix" values="0 0 0 0 0 0 0 0 0 0 0 0 0 0 0 0 0 0 127 0" result="hardAlpha"/>
<feOffset dy="1"/>
<feGaussianBlur stdDeviation="1"/>
<feColorMatrix type="matrix" values="0 0 0 0 0 0 0 0 0 0 0 0 0 0 0 0 0 0 0.4 0"/>
<feBlend mode="normal" in2="BackgroundImageFix" result="effect1_dropShadow_548_106"/>
<feColorMatrix in="SourceAlpha" type="matrix" values="0 0 0 0 0 0 0 0 0 0 0 0 0 0 0 0 0 0 127 0" result="hardAlpha"/>
<feOffset dy="8"/>
<feGaussianBlur stdDeviation="8"/>
<feComposite in2="hardAlpha" operator="out"/>
<feColorMatrix type="matrix" values="0 0 0 0 0 0 0 0 0 0 0 0 0 0 0 0 0 0 0.25 0"/>
<feBlend mode="normal" in2="effect1_dropShadow_548_106" result="effect2_dropShadow_548_106"/>
<feBlend mode="normal" in="SourceGraphic" in2="effect2_dropShadow_548_106" result="shape"/>
<feColorMatrix in="SourceAlpha" type="matrix" values="0 0 0 0 0 0 0 0 0 0 0 0 0 0 0 0 0 0 127 0" result="hardAlpha"/>
<feOffset dy="1"/>
<feComposite in2="hardAlpha" operator="arithmetic" k2="-1" k3="1"/>
<feColorMatrix type="matrix" values="0 0 0 0 1 0 0 0 0 1 0 0 0 0 1 0 0 0 1 0"/>
<feBlend mode="normal" in2="shape" result="effect3_innerShadow_548_106"/>
</filter>
<filter id="filter2_ddi_548_106" x="33.9453" y="4.75781" width="49.4023" height="49.9883" filterUnits="userSpaceOnUse" color-interpolation-filters="sRGB">
<feFlood flood-opacity="0" result="BackgroundImageFix"/>
<feColorMatrix in="SourceAlpha" type="matrix" values="0 0 0 0 0 0 0 0 0 0 0 0 0 0 0 0 0 0 127 0" result="hardAlpha"/>
<feOffset dy="1"/>
<feGaussianBlur stdDeviation="1"/>
<feColorMatrix type="matrix" values="0 0 0 0 0 0 0 0 0 0 0 0 0 0 0 0 0 0 0.4 0"/>
<feBlend mode="normal" in2="BackgroundImageFix" result="effect1_dropShadow_548_106"/>
<feColorMatrix in="SourceAlpha" type="matrix" values="0 0 0 0 0 0 0 0 0 0 0 0 0 0 0 0 0 0 127 0" result="hardAlpha"/>
<feOffset dy="8"/>
<feGaussianBlur stdDeviation="8"/>
<feComposite in2="hardAlpha" operator="out"/>
<feColorMatrix type="matrix" values="0 0 0 0 0 0 0 0 0 0 0 0 0 0 0 0 0 0 0.25 0"/>
<feBlend mode="normal" in2="effect1_dropShadow_548_106" result="effect2_dropShadow_548_106"/>
<feBlend mode="normal" in="SourceGraphic" in2="effect2_dropShadow_548_106" result="shape"/>
<feColorMatrix in="SourceAlpha" type="matrix" values="0 0 0 0 0 0 0 0 0 0 0 0 0 0 0 0 0 0 127 0" result="hardAlpha"/>
<feOffset dy="1"/>
<feComposite in2="hardAlpha" operator="arithmetic" k2="-1" k3="1"/>
<feColorMatrix type="matrix" values="0 0 0 0 1 0 0 0 0 1 0 0 0 0 1 0 0 0 0.7 0"/>
<feBlend mode="normal" in2="shape" result="effect3_innerShadow_548_106"/>
</filter>
</defs>
</svg>
