<svg width="48" height="48" viewBox="0 0 48 48" fill="none" xmlns="http://www.w3.org/2000/svg">
<path d="M24 6.75C18.624 6.75 14.25 11.124 14.25 16.5V20.5107C12.503 21.1289 11.25 22.7911 11.25 24.75V36.75C11.25 39.2355 13.2645 41.25 15.75 41.25H32.25C34.7355 41.25 36.75 39.2355 36.75 36.75V24.75C36.75 22.7911 35.497 21.1289 33.75 20.5107V16.5C33.75 11.124 29.376 6.75 24 6.75ZM24 9.75C27.7222 9.75 30.75 12.7785 30.75 16.5V20.25H17.25V16.5C17.25 12.7785 20.2778 9.75 24 9.75ZM15.75 23.25H32.25C33.0788 23.25 33.75 23.9212 33.75 24.75V36.75C33.75 37.5788 33.0788 38.25 32.25 38.25H15.75C14.9212 38.25 14.25 37.5788 14.25 36.75V24.75C14.25 23.9212 14.9212 23.25 15.75 23.25ZM18.375 28.875C17.3392 28.875 16.5 29.7142 16.5 30.75C16.5 31.7858 17.3392 32.625 18.375 32.625C19.4108 32.625 20.25 31.7858 20.25 30.75C20.25 29.7142 19.4108 28.875 18.375 28.875ZM24 28.875C22.9642 28.875 22.125 29.7142 22.125 30.75C22.125 31.7858 22.9642 32.625 24 32.625C25.0358 32.625 25.875 31.7858 25.875 30.75C25.875 29.7142 25.0358 28.875 24 28.875ZM29.625 28.875C28.5892 28.875 27.75 29.7142 27.75 30.75C27.75 31.7858 28.5892 32.625 29.625 32.625C30.6608 32.625 31.5 31.7858 31.5 30.75C31.5 29.7142 30.6608 28.875 29.625 28.875Z" fill="white"/>
</svg>
