<svg width="48" height="48" viewBox="0 0 48 48" fill="none" xmlns="http://www.w3.org/2000/svg">
<path d="M24 6.08203C23.6783 6.08194 23.3568 6.13346 23.0508 6.23584L11.0508 10.2349C9.82378 10.6436 9 11.7881 9 13.0811V29.7363C9 32.7521 10.4983 35.5514 13.0078 37.2246L21.0879 42.6108C21.9721 43.2003 22.986 43.4956 24 43.4956C25.014 43.4956 26.0279 43.2003 26.9121 42.6108L34.9922 37.2246C37.5017 35.5514 39 32.7521 39 29.7363V13.0811C39 11.7881 38.1762 10.6444 36.9492 10.2349L24.9492 6.23584C24.6436 6.13384 24.3217 6.08213 24 6.08203ZM24 9.08496C24.0083 9.08496 24.0152 9.08564 24.0234 9.08789L35.9487 13.0635C35.9787 13.074 36 13.103 36 13.1353V29.7363C36 31.7426 34.9976 33.6163 33.3281 34.7285L25.248 40.1147C24.4898 40.6202 23.5102 40.6202 22.752 40.1147L14.6719 34.7285C13.0024 33.6163 12 31.7426 12 29.7363V13.1353C12 13.103 12.0213 13.074 12.0513 13.0635L23.9766 9.08789C23.9841 9.08564 23.9917 9.08496 24 9.08496ZM24.0146 16.5C22.3684 16.5 21.0352 17.9735 21.0352 19.79C21.0352 21.6065 22.3691 23.0786 24.0146 23.0786C25.6601 23.0786 26.9941 21.6051 26.9941 19.7886C26.9941 17.9721 25.6601 16.5 24.0146 16.5ZM24 24.4526C22.5525 24.4526 21.0818 24.7652 19.5601 25.8677C18.8543 26.3792 17.6177 27.6527 17.6177 29.1167C17.6177 29.9057 18.4262 30 18.6782 30H29.3218C29.573 30 30.3823 29.9049 30.3823 29.1167C30.3823 27.6527 29.1457 26.3792 28.4399 25.8677C26.9174 24.7644 25.4475 24.4526 24 24.4526Z" fill="white"/>
</svg>
