<svg width="49" height="48" viewBox="0 0 49 48" fill="none" xmlns="http://www.w3.org/2000/svg">
<path d="M19.185 10.5C17.6535 10.5 16.1568 10.7884 14.7348 11.3569C13.6691 11.7837 12.5461 12 11.3979 12H10.9233C8.61479 12 6.60055 13.4798 5.91206 15.6841L4.1059 21.4673C3.11965 24.6233 3.93764 28.0556 6.24164 30.4248C8.27415 32.5143 10.9139 35.2176 11.9414 36.2241L12.3398 36.6182C14.2148 38.4789 16.9924 41.2339 19.9511 41.2339C20.1394 41.2339 20.3275 41.2227 20.518 41.1987C21.6685 41.0577 22.67 40.4936 23.5078 39.5259C24.0644 39.7091 24.6501 39.7982 25.2495 39.728C26.5131 39.5795 27.6122 38.7976 28.5366 37.4209C29.6976 37.8213 30.7705 37.5456 31.0122 37.4795C32.2997 37.1268 33.371 36.2359 34.0781 34.9761C35.1717 35.1506 36.3201 34.8854 37.2392 34.1807L37.2421 34.1836L42.7602 29.8872C45.2134 27.977 46.2375 24.7002 45.3105 21.7324L43.4208 15.6841C42.7323 13.4806 40.7181 12 38.4096 12H37.935C36.7868 12 35.6638 11.7837 34.5981 11.3569C33.1753 10.7884 31.6779 10.5 30.1464 10.5H25.5351C25.4951 10.5 25.4563 10.5048 25.4165 10.5059V10.5H19.185ZM19.185 13.5H20.8183C19.7415 14.5809 19.0173 15.0278 18.5712 15.1963C16.985 15.7948 15.0119 16.5396 15.0322 19.3491C15.0404 20.4546 15.7103 21.4784 16.8706 22.1587C19.1927 23.5197 22.7857 23.1836 26.6264 21.3208L35.5283 30.1143C35.967 30.553 35.9663 31.2663 35.5283 31.7051C35.088 32.1438 34.3762 32.1423 33.9374 31.7051L29.9604 27.728C29.3746 27.1423 28.4251 27.1423 27.8393 27.728C27.2535 28.3138 27.2535 29.2634 27.8393 29.8491L31.478 33.4878C31.1634 34.0591 30.7242 34.4484 30.2197 34.5864C29.8544 34.6869 29.4973 34.6361 29.2866 34.4531C28.4451 33.7204 27.5504 32.7956 26.3129 31.5146L25.7944 30.9785C25.2191 30.383 24.2673 30.3674 23.6733 30.9434C23.0778 31.5194 23.0628 32.4697 23.6396 33.0645L24.1552 33.5991C24.9228 34.3934 25.5518 35.0327 26.143 35.6118C25.7149 36.2943 25.2763 36.7025 24.8994 36.7471C24.5581 36.7921 23.5544 36.6229 21.5947 34.2656C21.0644 33.6281 20.1176 33.5435 19.4824 34.0723C18.8449 34.6025 18.758 35.5471 19.2875 36.1846C19.3636 36.2762 19.9776 37.0794 20.8901 37.8999C20.5449 38.1696 20.2732 38.2073 20.1518 38.2222C18.4478 38.4337 15.8418 35.8668 14.4521 34.4883L14.039 34.0811C13.2433 33.3011 11.2908 31.3135 8.39204 28.333C6.85754 26.7543 6.31192 24.4661 6.96967 22.3623L8.77582 16.5791C9.07057 15.6349 9.93404 15 10.9233 15H11.3979C12.9294 15 14.4261 14.7116 15.8481 14.1431C16.9138 13.7163 18.0368 13.5 19.185 13.5ZM25.5366 13.5H30.1479C31.2961 13.5 32.4183 13.7163 33.4833 14.1431C34.9061 14.7116 36.4035 15 37.935 15H38.4096C39.3996 15 40.2623 15.6341 40.5571 16.5791L42.4467 22.6274C43.0032 24.4079 42.3897 26.374 40.9174 27.52L38.5532 29.3613C38.3513 28.861 38.049 28.3917 37.6435 27.9858L27.9697 18.4321C27.4864 17.9544 26.7623 17.8798 26.1957 18.1919L26.1928 18.186C21.9103 20.5433 19.4755 19.9945 18.8305 19.7695C18.3123 19.5888 18.0892 19.3608 18.0322 19.2686C18.0299 18.6963 18.0785 18.5894 19.6318 18.0029C21.0305 17.4742 22.5396 16.2162 24.3808 14.0449C24.6756 13.6984 25.0963 13.5 25.5366 13.5Z" fill="white"/>
</svg>
