<svg width="16" height="16" viewBox="0 0 16 16" fill="none" xmlns="http://www.w3.org/2000/svg">
<path d="M2.30057 13.1992C2.16625 13.0648 2.07594 12.9073 2.02962 12.7265C1.98793 12.5411 1.99025 12.3604 2.03657 12.1843C2.08288 12.0035 2.16857 11.8506 2.29362 11.7255L6.26067 7.74909L2.29362 3.77964C2.16857 3.65451 2.08288 3.50157 2.03657 3.32083C1.99488 3.14008 1.99488 2.95934 2.03657 2.77859C2.08288 2.59785 2.17088 2.44028 2.30057 2.30588C2.43489 2.16684 2.59237 2.07647 2.773 2.03476C2.95827 1.99305 3.14122 1.99305 3.32186 2.03476C3.5025 2.07647 3.65766 2.16221 3.78735 2.29197L7.75439 6.25446L11.7145 2.29197C11.8442 2.16221 11.9993 2.07647 12.18 2.03476C12.3606 1.98841 12.5389 1.98841 12.7149 2.03476C12.8956 2.0811 13.0554 2.17148 13.1943 2.30588C13.3286 2.44028 13.4189 2.59785 13.4653 2.77859C13.5116 2.95934 13.5116 3.14008 13.4653 3.32083C13.4236 3.49694 13.3379 3.6522 13.2082 3.7866L9.24811 7.74909L13.2082 11.7185C13.3379 11.8483 13.4236 12.0035 13.4653 12.1843C13.5069 12.365 13.5046 12.5458 13.4583 12.7265C13.4166 12.9073 13.3286 13.0648 13.1943 13.1992C13.06 13.3336 12.9025 13.4217 12.7219 13.4634C12.5412 13.5098 12.3606 13.5121 12.18 13.4704C11.9993 13.4287 11.8442 13.3406 11.7145 13.2062L7.75439 9.24371L3.78735 13.2132C3.65766 13.3383 3.5025 13.4217 3.32186 13.4634C3.14586 13.5098 2.96522 13.5098 2.77995 13.4634C2.59932 13.4217 2.43952 13.3336 2.30057 13.1992Z" fill="white"/>
</svg>
