<svg width="7" height="11" viewBox="0 0 7 11" fill="none" xmlns="http://www.w3.org/2000/svg">
<path d="M7 5.26953C6.99613 5.08594 6.95934 4.91797 6.88963 4.76563C6.81992 4.60938 6.70954 4.45508 6.55851 4.30273L3.21112 0.751287C3.12382 0.658664 3.08017 0.612352 3.02847 0.579179C2.98264 0.549773 2.93232 0.52805 2.87948 0.51487C2.81988 0.5 2.75624 0.5 2.62896 0.5H1.81092C1.23785 0.5 0.951321 0.5 0.812442 0.615297C0.691821 0.715437 0.625151 0.866355 0.63235 1.02296C0.640639 1.20327 0.833596 1.41509 1.21951 1.83874L4.33942 5.26367L1.086 9.18953C0.739403 9.60777 0.566103 9.81689 0.563778 9.99342C0.561758 10.1469 0.630334 10.2928 0.749789 10.3892C0.887193 10.5 1.15879 10.5 1.70198 10.5H2.60167C2.73866 10.5 2.80715 10.5 2.87067 10.483C2.92696 10.4679 2.98018 10.4431 3.02792 10.4098C3.08181 10.3721 3.12589 10.3196 3.21404 10.2148L6.55851 6.23633C6.71342 6.08398 6.82573 5.93164 6.89544 5.7793C6.96515 5.62305 7 5.45313 7 5.26953Z" fill="#E7E7E7"/>
</svg>
